<svg width="511" height="214" viewBox="0 0 511 214" fill="none" xmlns="http://www.w3.org/2000/svg">
<g clip-path="url(#clip0_160_9)">
<path d="M66.8 73.5H99.5C131.2 73.5 152.6 91.4 152.6 122.4C152.6 153.4 131.2 171.3 99.5 171.3H66.8V73.5ZM99.5 165C126.5 165 144.9 149.2 144.9 122.5C144.9 95.8 126.4 80 99.5 80H74.3V165H99.5ZM79.4 84.2H99.7C122.9 84.2 140 97.3 140 122.5C140 147.7 122.9 160.8 99.7 160.8H79.4V84.2ZM99.6 154.4C117.9 154.4 132.2 143.9 132.2 122.5C132.2 101.1 117.9 90.6 99.6 90.6H86.9V154.4H99.6Z" fill="white"/>
<path d="M202.5 171.4H194.9V73.5H202.5V171.4ZM207.5 171.4V73.5H215.1V171.4H207.5Z" fill="white"/>
<path d="M307.8 73.5L347.4 171.4H339.8L302.9 80.7H296.5L259.6 171.4H252L291.6 73.5H307.8ZM278.5 156.9L272.9 171.4H264.6L273.1 150.6H326L334.5 171.4H326.2L320.6 156.9H278.5ZM274.9 146.4L299.6 85.3L324.3 146.4H274.9ZM314.3 140.1L299.6 102.1L284.9 140.1H314.3Z" fill="white"/>
<path d="M443.5 165V171.4H384V73.5H391.5V165H443.5ZM443.5 160.8H396.7V73.5H404.3V154.3H443.6V160.8H443.5Z" fill="white"/>
<path d="M212.2 6V42.4H205.8V6H196V0H221.9V6H212.2Z" fill="white"/>
<path d="M244.9 16.6H263.2V0H269.6V42.5H263.2V22.6H244.9V42.4H238.5V0H244.9V16.6Z" fill="white"/>
<path d="M314.2 6H297.2V16.2H313.7V22.2H297.2V36.4H314.2V42.4H290.8V0H314.2V6Z" fill="white"/>
<path d="M510.2 213.2H0V15.8999H177.2V22.6999H6.7V206.4H503.5V22.6999H332V15.8999H510.2V213.2Z" fill="white"/>
</g>
<defs>
<clipPath id="clip0_160_9">
<rect width="510.2" height="213.2" fill="white"/>
</clipPath>
</defs>
</svg>
