<svg version="1.1" id="Layer_1" xmlns="http://www.w3.org/2000/svg" xmlns:xlink="http://www.w3.org/1999/xlink" x="0px" y="0px" viewBox="0 0 510.2 213.2" style="enable-background:new 0 0 510.2 213.2;" xml:space="preserve">
	<path class="st0" d="M66.8,73.5h32.7c31.7,0,53.1,17.9,53.1,48.9c0,31-21.4,48.9-53.1,48.9H66.8V73.5z M99.5,165 c27,0,45.4-15.8,45.4-42.5c0-26.7-18.5-42.5-45.4-42.5H74.3v85H99.5z M79.4,84.2h20.3c23.2,0,40.3,13.1,40.3,38.3 c0,25.2-17.1,38.3-40.3,38.3H79.4V84.2z M99.6,154.4c18.3,0,32.6-10.5,32.6-31.9c0-21.4-14.3-31.9-32.6-31.9H86.9v63.8H99.6z"/>
	<path class="st0" d="M202.5,171.4h-7.6V73.5h7.6V171.4z M207.5,171.4V73.5h7.6v97.9H207.5z"/>
	<path class="st0" d="M307.8,73.5l39.6,97.9h-7.6l-36.9-90.7h-6.4l-36.9,90.7H252l39.6-97.9H307.8z M278.5,156.9l-5.6,14.5h-8.3 l8.5-20.8h52.9l8.5,20.8h-8.3l-5.6-14.5H278.5z M274.9,146.4l24.7-61.1l24.7,61.1H274.9z M314.3,140.1l-14.7-38l-14.7,38H314.3z"/>
	<path class="st0" d="M443.5,165v6.4H384V73.5h7.5V165H443.5z M443.5,160.8h-46.8V73.5h7.6v80.8h39.3V160.8z"/>
	<path class="st0" d="M212.2,6v36.4h-6.4V6H196V0h25.9v6H212.2z"/>
	<path class="st0" d="M244.9,16.6h18.3V0h6.4v42.5h-6.4V22.6h-18.3v19.8h-6.4V0h6.4V16.6z"/>
	<path class="st0" d="M314.2,6h-17v10.2h16.5v6h-16.5v14.2h17v6h-23.4V0h23.4V6z"/>
	<polygon class="st0" points="510.2,213.2 0,213.2 0,15.9 177.2,15.9 177.2,22.7 6.7,22.7 6.7,206.4 503.5,206.4 503.5,22.7 332,22.7 332,15.9 510.2,15.9 "/>
</svg>