<svg xmlns="http://www.w3.org/2000/svg" width="300" height="300" viewBox="0 0 1000 1000">
  <defs>
    <style>
      .cls-1 {
        fill: #ef476f;
        fill-rule: evenodd;
      }
    </style>
  </defs>
  <path id="Shape_3_copy" data-name="Shape 3 copy" class="cls-1" d="M27.991,124.735q19.54,0,39.08,0c226.987,0.067,236.73-.431,463.71.829,76.99,0.427,153.025,10.99,225.579,39.271,61.7,24.048,110.8,62.4,140.323,123.006,19.555,40.142,29.236,82.53,24.738,127.084-6.822,67.577-37.488,122.29-92.18,163.2-27.454,20.537-57.127,36.792-89.826,47.366-1.546.5-3,1.293-5.652,2.458l240.51,247.308H966.5q-141.838,0-283.675.094a14.823,14.823,0,0,1-11.785-4.877c-22.808-23.312-45.9-46.349-68.914-69.457Q517.95,716.514,433.9,631.889a17.429,17.429,0,0,1-4.6-11.051c-0.29-55.451-.094-110.9-0.339-166.355-0.029-6.745,2.244-8.256,8.612-8.223q71.811,0.365,143.623.072c30.37-.131,54.868-23.806,55.48-53.025,0.63-30.124-23.286-54.859-54.036-55.858-2.856-.092-5.716-0.03-8.574-0.03-180.781,0-144.313-.249-325.093-0.04-7.811.009-13.219-2.383-18.657-7.843Q132.026,230.85,33.318,132.584c-2-1.993-4.668-3.313-7.024-4.947Z"/>
</svg>
